<svg width="138" height="20" viewBox="0 0 138 20" fill="none" xmlns="http://www.w3.org/2000/svg">
<g clip-path="url(#clip0_99_92)">
<path d="M0.423882 9.63583C0.423882 6.34765 0.272533 3.08591 0 0H20.5958L20.4427 3.80696H5.08849V7.58296H19.463V11.144H5.08849V15.4644H20.4427L20.5958 19.2673V19.2713H0C0.272533 16.1849 0.423882 12.9237 0.423882 9.63583Z" fill="white"/>
<path d="M29.296 19.2713V13.6597C29.2956 9.49847 32.5358 6.95691 35.7787 6.95691C38.9306 6.95691 40.3439 8.76873 40.3439 12.3894V19.2712H44.9825V13.4044C44.9825 8.47238 48.239 6.95691 51.0734 6.95691C54.2667 6.95691 55.5678 8.83134 55.5678 12.3275V19.2713H60.2067V11.6849C60.2067 7.31221 58.2139 2.99377 52.0753 2.99377C47.9362 2.99377 45.3612 4.39447 43.6402 7.27604C42.7551 4.3343 40.3176 2.99377 37.0455 2.99377C33.4044 2.99377 30.9086 4.54856 29.296 6.82943V3.80682H24.3413C24.5131 5.88038 24.6619 8.50647 24.6619 11.539C24.6619 14.5717 24.5131 17.1978 24.3413 19.2713H29.296Z" fill="white"/>
<path d="M75.1035 2.9939C68.4204 2.9939 63.4136 6.08346 63.4136 11.3939C63.4136 16.7047 68.4204 19.7937 75.1035 19.7937C81.7591 19.7935 86.7935 16.7047 86.7935 11.3939C86.7935 6.08346 81.7591 2.9939 75.1035 2.9939ZM75.103 16.0986C70.6782 16.0986 67.93 14.2372 67.93 11.3939C67.93 8.55042 70.6782 6.68937 75.103 6.68937C79.5012 6.68937 82.2495 8.55042 82.2495 11.3939C82.2495 14.2372 79.5012 16.0986 75.103 16.0986Z" fill="white"/>
<path d="M133.074 10.043C131.646 9.79064 129.864 9.60177 128.175 9.52751C126.775 9.46577 125.453 9.38038 124.38 9.27499C123.483 9.18716 120.925 9.06246 121.15 7.78055C121.394 6.38298 125.262 6.20629 128.397 6.46611C131.567 6.72872 133.86 7.36733 135.907 8.58646L137.37 5.50925C135.085 4.02681 130.982 2.97168 127.134 2.97168C118.624 2.97168 116.715 5.62542 116.715 7.85185C116.715 10.2279 118.32 11.7073 121.741 12.3689C123.342 12.6783 125.245 12.8571 127.646 12.9468C128.945 12.9955 130.243 13.0823 131.223 13.2249C132.18 13.3635 132.572 13.4668 133.022 13.6797C133.418 13.8675 133.734 14.2258 133.691 14.7046C133.617 15.5473 132.169 16.468 127.027 16.1854C123.377 15.9844 120.004 15.0242 117.67 13.3769L115.947 16.7112C117.995 18.0202 121.419 19.4779 126.92 19.7345C127.456 19.7592 127.972 19.7717 128.471 19.7717C136.746 19.7717 138.103 16.6466 138.103 14.3999C138.103 12.1232 136.082 10.5753 133.074 10.043Z" fill="white"/>
<path d="M89.8379 19.2713C90.0102 17.1975 90.1591 14.5718 90.1591 11.5389C90.1588 8.50624 90.0104 5.88033 89.8379 3.80677L89.8766 3.82364V3.80677H94.7931V6.82955C96.5363 4.67459 99.3228 2.9939 104.131 2.9939C110.021 2.9939 113.289 6.68346 113.289 11.9085V19.2709L108.65 19.2713V12.5195C108.65 8.78937 106.627 6.89981 102.769 6.89981C98.6016 6.89981 94.7929 9.41824 94.7929 14.0706V19.2711H89.8379V19.2713Z" fill="white"/>
</g>
<defs>
<clipPath id="clip0_99_92">
<rect width="138" height="20" fill="white"/>
</clipPath>
</defs>
</svg>
