<svg width="50" height="50" viewBox="0 0 50 50" fill="none" xmlns="http://www.w3.org/2000/svg">
<path d="M24.9998 23.9584C23.6185 23.9584 22.2937 23.4096 21.317 22.4329C20.3402 21.4561 19.7915 20.1314 19.7915 18.75C19.7915 17.3687 20.3402 16.0439 21.317 15.0672C22.2937 14.0904 23.6185 13.5417 24.9998 13.5417C26.3812 13.5417 27.7059 14.0904 28.6827 15.0672C29.6594 16.0439 30.2082 17.3687 30.2082 18.75C30.2082 19.434 30.0735 20.1113 29.8117 20.7432C29.55 21.3751 29.1663 21.9492 28.6827 22.4329C28.199 22.9165 27.6249 23.3002 26.993 23.5619C26.3611 23.8236 25.6838 23.9584 24.9998 23.9584ZM24.9998 4.16669C21.1321 4.16669 17.4228 5.70314 14.6879 8.43805C11.953 11.173 10.4165 14.8823 10.4165 18.75C10.4165 29.6875 24.9998 45.8334 24.9998 45.8334C24.9998 45.8334 39.5832 29.6875 39.5832 18.75C39.5832 14.8823 38.0467 11.173 35.3118 8.43805C32.5769 5.70314 28.8676 4.16669 24.9998 4.16669Z" fill="#E8E8E8"/>
</svg>
