<svg width="138" height="20" viewBox="0 0 138 20" fill="none" xmlns="http://www.w3.org/2000/svg">
<g clip-path="url(#clip0_99_135)">
<rect width="138" height="19.9372" fill="white"/>
<path d="M0.423882 9.60556C0.423882 6.32772 0.272533 3.07622 0 0H20.5958L20.4427 3.795H5.08849V7.55914H19.463V11.109H5.08849V15.4158H20.4427L20.5958 19.2068V19.2108H0C0.272533 16.134 0.423882 12.8831 0.423882 9.60556Z" fill="#14008C"/>
<path d="M29.296 19.2108V13.6168C29.2956 9.46864 32.5358 6.93506 35.7787 6.93506C38.9306 6.93506 40.3439 8.74119 40.3439 12.3505V19.2106H44.9825V13.3623C44.9825 8.44578 48.2391 6.93506 51.0734 6.93506C54.2667 6.93506 55.5678 8.80361 55.5678 12.2888V19.2108H60.2067V11.6482C60.2067 7.28925 58.2139 2.98438 52.0753 2.98438C47.9362 2.98438 45.3612 4.38067 43.6402 7.25319C42.7551 4.32069 40.3176 2.98438 37.0455 2.98438C33.4044 2.98438 30.9086 4.53427 29.296 6.80798V3.79486H24.3413C24.5131 5.86192 24.6619 8.47976 24.6619 11.5028C24.6619 14.5259 24.5131 17.1438 24.3413 19.2108H29.296Z" fill="#14008C"/>
<path d="M75.1035 2.98438C68.4204 2.98438 63.4136 6.06424 63.4136 11.358C63.4136 16.6521 68.4204 19.7314 75.1035 19.7314C81.7591 19.7313 86.7935 16.6521 86.7935 11.358C86.7935 6.06424 81.7591 2.98438 75.1035 2.98438ZM75.103 16.0479C70.6782 16.0479 67.93 14.1924 67.93 11.358C67.93 8.52345 70.6782 6.66825 75.103 6.66825C79.5011 6.66825 82.2495 8.52345 82.2495 11.358C82.2495 14.1924 79.5011 16.0479 75.103 16.0479Z" fill="#14008C"/>
<path d="M133.074 10.0115C131.646 9.75994 129.864 9.57167 128.175 9.49764C126.775 9.43609 125.453 9.35097 124.38 9.24591C123.483 9.15836 120.925 9.03405 121.15 7.75617C121.394 6.36299 125.262 6.18685 128.397 6.44586C131.567 6.70765 133.86 7.34425 135.907 8.55955L137.37 5.492C135.085 4.01422 130.982 2.9624 127.134 2.9624C118.624 2.9624 116.715 5.60781 116.715 7.82725C116.715 10.1958 118.32 11.6706 121.741 12.3301C123.342 12.6385 125.245 12.8167 127.646 12.9062C128.945 12.9547 130.243 13.0413 131.223 13.1834C132.18 13.3216 132.572 13.4246 133.022 13.6368C133.418 13.824 133.734 14.1811 133.691 14.6584C133.617 15.4986 132.169 16.4164 127.027 16.1346C123.377 15.9342 120.004 14.9771 117.67 13.3349L115.947 16.6587C117.995 17.9637 121.419 19.4168 126.92 19.6725C127.456 19.6972 127.972 19.7096 128.471 19.7096C136.746 19.7096 138.103 16.5944 138.103 14.3547C138.103 12.0851 136.082 10.5422 133.074 10.0115Z" fill="#14008C"/>
<path d="M89.8379 19.2106C90.0102 17.1434 90.1591 14.5259 90.1591 11.5026C90.1588 8.47941 90.0104 5.86174 89.8379 3.79469L89.8766 3.81151V3.79469H94.7931V6.80798C96.5363 4.65979 99.3228 2.98438 104.131 2.98438C110.021 2.98438 113.289 6.66235 113.289 11.871V19.2103L108.65 19.2106V12.48C108.65 8.76165 106.627 6.87802 102.769 6.87802C98.6016 6.87802 94.7929 9.38855 94.7929 14.0263V19.2105H89.8379V19.2106Z" fill="#14008C"/>
</g>
<defs>
<clipPath id="clip0_99_135">
<rect width="138" height="19.9372" fill="white"/>
</clipPath>
</defs>
</svg>
