<svg width="122" height="12" viewBox="0 0 122 12" fill="none" xmlns="http://www.w3.org/2000/svg">
<g clip-path="url(#clip0_99_141)">
<path d="M93.2733 10.0864L87.7736 1.46143H85.5757V11.7018H86.9866V2.83643L92.611 11.7018H93.9163L99.5408 2.83643V11.7018H100.952V1.46143H98.7441L93.2733 10.0864Z" fill="#85899B"/>
<path d="M112.939 9.34593C111.269 10.0094 109.043 10.7113 107.488 10.7113C105.722 10.7113 104.579 10.394 104.579 9.08631C104.579 7.78824 106.154 7.34593 108.217 7.34593C110.204 7.34593 111.74 7.74016 112.939 8.10554V9.34593ZM109.023 2.92285C107.123 2.92285 105.501 3.24016 103.754 3.81708L104.368 4.99016C106.355 4.3267 107.785 4.21131 108.927 4.21131C110.127 4.21131 112.939 4.40362 112.939 6.73054V6.81708C111.49 6.37477 109.801 6.05747 108.16 6.05747C105.309 6.05747 103.034 6.84593 103.034 9.05747C103.034 10.9998 104.32 11.9998 107.113 11.9998C109.446 11.9998 111.231 11.3459 112.939 10.6344V11.7017H114.36V7.2017C114.331 4.00939 112.517 2.92285 109.023 2.92285Z" fill="#85899B"/>
<path d="M118.161 0H116.74V11.7019H118.161V0Z" fill="#85899B"/>
<path d="M122 0H120.58V11.7019H122V0Z" fill="#85899B"/>
<path d="M0.23995 6.35573C0.23995 4.53842 0.153568 2.73073 0 1.02881H11.4024L11.3256 3.13458H2.82181V5.22112H10.7785V7.19227H2.82181V9.5865H11.3256L11.412 11.6923L0 11.6827C0.153568 9.98073 0.23995 8.17304 0.23995 6.35573Z" fill="#85899B"/>
<path d="M16.2204 11.6826V8.58646C16.2204 6.28839 18.0153 4.87493 19.8101 4.87493C21.5569 4.87493 22.3344 5.87492 22.3344 7.88454V11.6922H24.9066V8.44223C24.9066 5.71146 26.711 4.87493 28.2755 4.87493C30.0415 4.87493 30.7614 5.91339 30.7614 7.84608V11.6826H33.3337V7.49031C33.3337 5.07685 32.2299 2.68262 28.8322 2.68262C26.5383 2.68262 25.1178 3.46146 24.158 5.048C23.6685 3.423 22.3152 2.68262 20.5011 2.68262C18.4856 2.68262 17.1035 3.53839 16.2108 4.80762V3.13454H13.4658C13.5618 4.27877 13.6482 5.73069 13.6482 7.41339C13.6482 9.09608 13.5618 10.548 13.4658 11.6922H16.2204V11.6826Z" fill="#85899B"/>
<path d="M41.5978 2.68262C37.893 2.68262 35.1191 4.39416 35.1191 7.32685C35.1191 10.2595 37.893 11.9711 41.5978 11.9711C45.2834 11.9711 48.0764 10.2595 48.0764 7.32685C48.0668 4.39416 45.2834 2.68262 41.5978 2.68262ZM41.5978 9.93262C39.1503 9.93262 37.6242 8.90377 37.6242 7.32685C37.6242 5.74992 39.1503 4.72108 41.5978 4.72108C44.0357 4.72108 45.5522 5.74992 45.5522 7.32685C45.5522 8.90377 44.0261 9.93262 41.5978 9.93262Z" fill="#85899B"/>
<path d="M73.7029 6.58665C72.9158 6.44242 71.9272 6.34627 70.9866 6.29819C70.2092 6.25973 69.4797 6.22127 68.8847 6.15396C68.3856 6.10588 66.9747 6.03857 67.0994 5.32704C67.2338 4.5578 69.3742 4.45204 71.1114 4.59627C72.8678 4.7405 74.1348 5.09627 75.2673 5.76934L76.0736 4.06742C74.8066 3.25011 72.5319 2.66357 70.4012 2.66357C65.6885 2.66357 64.6328 4.13473 64.6328 5.3655C64.6328 6.6828 65.5254 7.50011 67.4162 7.8655C68.2992 8.03857 69.355 8.13473 70.6891 8.1828C71.4089 8.21165 72.1288 8.25973 72.6663 8.33665C73.1942 8.41357 73.4149 8.47127 73.6645 8.58665C73.8852 8.69242 74.058 8.88473 74.0388 9.15396C74.0004 9.6155 73.1942 10.1251 70.3436 9.97127C68.3184 9.85588 66.4564 9.32704 65.1607 8.41357L64.2104 10.2597C65.343 10.9809 67.2434 11.7886 70.286 11.9328C70.5835 11.9424 70.8715 11.952 71.1498 11.952C75.728 11.952 76.4863 10.2213 76.4863 8.98088C76.4863 7.73088 75.3633 6.87511 73.7029 6.58665Z" fill="#85899B"/>
<path d="M49.7559 11.6826C49.8518 10.5384 49.9286 9.08646 49.9286 7.40377C49.9286 5.72108 49.8422 4.27877 49.7559 3.12492H52.5009V4.80762C53.4703 3.61531 55.006 2.68262 57.6742 2.68262C60.9375 2.68262 62.7419 4.72108 62.7419 7.61531V11.6922H60.1697V7.95185C60.1697 5.88454 59.0467 4.84608 56.916 4.84608C54.6028 4.84608 52.5009 6.24031 52.5009 8.80762V11.6826H49.7559Z" fill="#85899B"/>
</g>
<defs>
<clipPath id="clip0_99_141">
<rect width="122" height="12" fill="white"/>
</clipPath>
</defs>
</svg>
